<svg width="341" height="327" viewBox="0 0 341 327" fill="none" xmlns="http://www.w3.org/2000/svg">
<g filter="url(#filter0_d_10_137)">
<rect x="34" width="273" height="251" fill="white"/>
</g>
<path d="M76.7244 110.545V121.685C76.7244 123.875 75.1989 125.443 72.804 125.443C70.4006 125.443 68.8835 123.875 68.8835 121.685V110.545H65.7216V121.949C65.7216 125.699 68.5341 128.264 72.804 128.264C77.0568 128.264 79.8864 125.699 79.8864 121.949V110.545H76.7244ZM86.4851 110.545H83.3232V128H86.4851V110.545ZM96.8977 109.727H94.196L88.571 130.625H91.2727L96.8977 109.727ZM110.006 110.545V121.685C110.006 123.875 108.48 125.443 106.085 125.443C103.682 125.443 102.165 123.875 102.165 121.685V110.545H99.0028V121.949C99.0028 125.699 101.815 128.264 106.085 128.264C110.338 128.264 113.168 125.699 113.168 121.949V110.545H110.006ZM119.246 110.545H115.624L121.07 119.273L115.556 128H119.204L123.09 121.651H123.227L127.113 128H130.778L125.315 119.273L130.692 110.545H127.087L123.227 116.938H123.09L119.246 110.545ZM145.043 128C150.361 128 153.514 124.71 153.514 119.256C153.514 113.818 150.361 110.545 145.162 110.545H139.128V128H145.043ZM142.29 125.264V113.281H144.983C148.528 113.281 150.378 115.259 150.378 119.256C150.378 123.27 148.528 125.264 144.889 125.264H142.29ZM162.178 128.256C165.229 128.256 167.325 126.764 167.871 124.489L164.99 124.165C164.572 125.273 163.55 125.852 162.22 125.852C160.226 125.852 158.905 124.54 158.879 122.298H167.999V121.352C167.999 116.759 165.237 114.739 162.016 114.739C158.266 114.739 155.82 117.491 155.82 121.531C155.82 125.639 158.232 128.256 162.178 128.256ZM158.888 120.219C158.982 118.548 160.217 117.142 162.058 117.142C163.831 117.142 165.024 118.438 165.041 120.219H158.888ZM180.955 118.369C180.529 116.153 178.756 114.739 175.688 114.739C172.535 114.739 170.387 116.29 170.396 118.71C170.387 120.619 171.563 121.881 174.077 122.401L176.31 122.869C177.512 123.134 178.075 123.619 178.075 124.361C178.075 125.256 177.103 125.929 175.637 125.929C174.222 125.929 173.302 125.315 173.038 124.139L170.029 124.429C170.413 126.832 172.433 128.256 175.646 128.256C178.918 128.256 181.228 126.56 181.237 124.08C181.228 122.213 180.026 121.071 177.555 120.534L175.322 120.057C173.992 119.759 173.464 119.298 173.472 118.54C173.464 117.653 174.444 117.04 175.731 117.04C177.154 117.04 177.904 117.815 178.143 118.676L180.955 118.369ZM183.781 128H186.866V114.909H183.781V128ZM185.332 113.051C186.312 113.051 187.113 112.301 187.113 111.381C187.113 110.452 186.312 109.702 185.332 109.702C184.343 109.702 183.542 110.452 183.542 111.381C183.542 112.301 184.343 113.051 185.332 113.051ZM195.732 133.182C199.268 133.182 201.876 131.562 201.876 128.213V114.909H198.834V117.074H198.663C198.195 116.128 197.214 114.739 194.905 114.739C191.879 114.739 189.501 117.108 189.501 121.412C189.501 125.682 191.879 127.812 194.896 127.812C197.138 127.812 198.186 126.611 198.663 125.648H198.817V128.128C198.817 130.054 197.538 130.847 195.783 130.847C193.925 130.847 193.107 129.969 192.732 129.202L189.953 129.875C190.516 131.707 192.399 133.182 195.732 133.182ZM195.757 125.392C193.72 125.392 192.646 123.807 192.646 121.395C192.646 119.017 193.703 117.27 195.757 117.27C197.743 117.27 198.834 118.915 198.834 121.395C198.834 123.892 197.726 125.392 195.757 125.392ZM208.124 120.33C208.124 118.438 209.266 117.347 210.893 117.347C212.487 117.347 213.442 118.395 213.442 120.142V128H216.527V119.665C216.536 116.528 214.746 114.739 212.044 114.739C210.084 114.739 208.737 115.676 208.141 117.134H207.987V114.909H205.038V128H208.124V120.33Z" fill="#0F1221"/>
<circle cx="89" cy="55" r="25" fill="#F5FBFC"/>
<path d="M89.5 54.134C91.5711 54.134 93.25 52.7609 93.25 51.067C93.25 49.3732 91.5711 48 89.5 48C87.4289 48 85.75 49.3732 85.75 51.067C85.75 52.7609 87.4289 54.134 89.5 54.134Z" stroke="#08546C" stroke-width="3" stroke-linecap="round" stroke-linejoin="round"/>
<path d="M89.5 68.4469V54.1342" stroke="#08546C" stroke-width="3" stroke-linecap="round" stroke-linejoin="round"/>
<path d="M80.75 58.2234H77C77 60.9348 78.317 63.5352 80.6612 65.4524C83.0054 67.3697 86.1848 68.4468 89.5 68.4468C92.8152 68.4468 95.9946 67.3697 98.3388 65.4524C100.683 63.5352 102 60.9348 102 58.2234H98.25" stroke="#08546C" stroke-width="3" stroke-linecap="round" stroke-linejoin="round"/>
<path d="M66.8182 151.364H65.4091V163H66.8182V151.364ZM70.6435 151.364H69.3707V152.409C69.3707 153.25 68.9616 153.977 68.4844 154.659L69.2116 155.25C70.1207 154.523 70.6435 153.318 70.6435 152.386V151.364ZM79.7855 154.273H78.331L75.9219 161.227H75.831L73.4219 154.273H71.9673L75.1946 163H76.5582L79.7855 154.273ZM84.902 163.182C86.6747 163.182 87.9702 162.295 88.3793 160.977L87.0838 160.614C86.7429 161.523 85.9531 161.977 84.902 161.977C83.3281 161.977 82.2429 160.96 82.1804 159.091H88.5156V158.523C88.5156 155.273 86.5838 154.159 84.7656 154.159C82.402 154.159 80.8338 156.023 80.8338 158.705C80.8338 161.386 82.3793 163.182 84.902 163.182ZM82.1804 157.932C82.2713 156.574 83.2315 155.364 84.7656 155.364C86.2202 155.364 87.152 156.455 87.152 157.932H82.1804ZM98.6009 163.182C100.533 163.182 101.805 162 102.033 160.455H100.692C100.442 161.409 99.6463 161.977 98.6009 161.977C97.0099 161.977 95.9872 160.659 95.9872 158.636C95.9872 156.659 97.0327 155.364 98.6009 155.364C99.7827 155.364 100.487 156.091 100.692 156.886H102.033C101.805 155.25 100.419 154.159 98.5781 154.159C96.2145 154.159 94.6463 156.023 94.6463 158.682C94.6463 161.295 96.1463 163.182 98.6009 163.182ZM103.993 163H105.334V157.477C105.334 156.295 106.266 155.432 107.538 155.432C107.896 155.432 108.266 155.5 108.357 155.523V154.159C108.203 154.148 107.851 154.136 107.652 154.136C106.607 154.136 105.697 154.727 105.379 155.591H105.288V154.273H103.993V163ZM113.339 163.182C115.112 163.182 116.408 162.295 116.817 160.977L115.521 160.614C115.18 161.523 114.391 161.977 113.339 161.977C111.766 161.977 110.68 160.96 110.618 159.091H116.953V158.523C116.953 155.273 115.021 154.159 113.203 154.159C110.839 154.159 109.271 156.023 109.271 158.705C109.271 161.386 110.817 163.182 113.339 163.182ZM110.618 157.932C110.709 156.574 111.669 155.364 113.203 155.364C114.658 155.364 115.589 156.455 115.589 157.932H110.618ZM121.561 163.205C123.084 163.205 123.879 162.386 124.152 161.818H124.22V163H125.561V157.25C125.561 154.477 123.447 154.159 122.334 154.159C121.016 154.159 119.516 154.614 118.834 156.205L120.107 156.659C120.402 156.023 121.101 155.341 122.379 155.341C123.612 155.341 124.22 155.994 124.22 157.114V157.159C124.22 157.807 123.561 157.75 121.97 157.955C120.351 158.165 118.584 158.523 118.584 160.523C118.584 162.227 119.902 163.205 121.561 163.205ZM121.766 162C120.697 162 119.925 161.523 119.925 160.591C119.925 159.568 120.857 159.25 121.902 159.114C122.47 159.045 123.993 158.886 124.22 158.614V159.841C124.22 160.932 123.357 162 121.766 162ZM131.804 154.273H129.94V152.182H128.599V154.273H127.281V155.409H128.599V160.864C128.599 162.386 129.827 163.114 130.963 163.114C131.463 163.114 131.781 163.023 131.963 162.955L131.69 161.75C131.577 161.773 131.395 161.818 131.099 161.818C130.509 161.818 129.94 161.636 129.94 160.5V155.409H131.804V154.273ZM137.386 163.182C139.159 163.182 140.455 162.295 140.864 160.977L139.568 160.614C139.227 161.523 138.438 161.977 137.386 161.977C135.812 161.977 134.727 160.96 134.665 159.091H141V158.523C141 155.273 139.068 154.159 137.25 154.159C134.886 154.159 133.318 156.023 133.318 158.705C133.318 161.386 134.864 163.182 137.386 163.182ZM134.665 157.932C134.756 156.574 135.716 155.364 137.25 155.364C138.705 155.364 139.636 156.455 139.636 157.932H134.665ZM146.335 163.182C148.017 163.182 148.585 162.136 148.881 161.659H149.04V163H150.335V151.364H148.994V155.659H148.881C148.585 155.205 148.062 154.159 146.358 154.159C144.153 154.159 142.631 155.909 142.631 158.659C142.631 161.432 144.153 163.182 146.335 163.182ZM146.517 161.977C144.835 161.977 143.972 160.5 143.972 158.636C143.972 156.795 144.812 155.364 146.517 155.364C148.153 155.364 149.017 156.682 149.017 158.636C149.017 160.614 148.131 161.977 146.517 161.977ZM160.045 163.205C161.568 163.205 162.364 162.386 162.636 161.818H162.705V163H164.045V157.25C164.045 154.477 161.932 154.159 160.818 154.159C159.5 154.159 158 154.614 157.318 156.205L158.591 156.659C158.886 156.023 159.585 155.341 160.864 155.341C162.097 155.341 162.705 155.994 162.705 157.114V157.159C162.705 157.807 162.045 157.75 160.455 157.955C158.835 158.165 157.068 158.523 157.068 160.523C157.068 162.227 158.386 163.205 160.045 163.205ZM160.25 162C159.182 162 158.409 161.523 158.409 160.591C158.409 159.568 159.341 159.25 160.386 159.114C160.955 159.045 162.477 158.886 162.705 158.614V159.841C162.705 160.932 161.841 162 160.25 162ZM176.493 159.432C176.493 161.068 175.243 161.818 174.243 161.818C173.129 161.818 172.334 161 172.334 159.727V154.273H170.993V159.818C170.993 162.045 172.175 163.114 173.811 163.114C175.129 163.114 175.993 162.409 176.402 161.523H176.493V163H177.834V154.273H176.493V159.432ZM186.472 156.227C186.051 154.989 185.108 154.159 183.381 154.159C181.54 154.159 180.176 155.205 180.176 156.682C180.176 157.886 180.892 158.693 182.494 159.068L183.949 159.409C184.83 159.614 185.244 160.034 185.244 160.636C185.244 161.386 184.449 162 183.199 162C182.102 162 181.415 161.528 181.176 160.591L179.903 160.909C180.216 162.392 181.438 163.182 183.222 163.182C185.25 163.182 186.631 162.074 186.631 160.568C186.631 159.352 185.869 158.585 184.312 158.205L183.017 157.886C181.983 157.631 181.517 157.284 181.517 156.614C181.517 155.864 182.312 155.318 183.381 155.318C184.551 155.318 185.034 155.966 185.267 156.568L186.472 156.227ZM192.308 163.182C194.081 163.182 195.376 162.295 195.786 160.977L194.49 160.614C194.149 161.523 193.359 161.977 192.308 161.977C190.734 161.977 189.649 160.96 189.587 159.091H195.922V158.523C195.922 155.273 193.99 154.159 192.172 154.159C189.808 154.159 188.24 156.023 188.24 158.705C188.24 161.386 189.786 163.182 192.308 163.182ZM189.587 157.932C189.678 156.574 190.638 155.364 192.172 155.364C193.626 155.364 194.558 156.455 194.558 157.932H189.587ZM197.962 163H199.303V157.477C199.303 156.295 200.234 155.432 201.507 155.432C201.865 155.432 202.234 155.5 202.325 155.523V154.159C202.172 154.148 201.82 154.136 201.621 154.136C200.575 154.136 199.666 154.727 199.348 155.591H199.257V154.273H197.962V163ZM208.415 163H209.756V154.273H208.415V163ZM209.097 152.818C209.619 152.818 210.051 152.409 210.051 151.909C210.051 151.409 209.619 151 209.097 151C208.574 151 208.142 151.409 208.142 151.909C208.142 152.409 208.574 152.818 209.097 152.818ZM213.553 157.75C213.553 156.227 214.496 155.364 215.78 155.364C217.024 155.364 217.78 156.176 217.78 157.545V163H219.121V157.455C219.121 155.227 217.933 154.159 216.166 154.159C214.848 154.159 214.03 154.75 213.621 155.636H213.507V154.273H212.212V163H213.553V157.75ZM225.366 154.273H223.503V152.182H222.162V154.273H220.844V155.409H222.162V160.864C222.162 162.386 223.389 163.114 224.526 163.114C225.026 163.114 225.344 163.023 225.526 162.955L225.253 161.75C225.139 161.773 224.957 161.818 224.662 161.818C224.071 161.818 223.503 161.636 223.503 160.5V155.409H225.366V154.273ZM230.949 163.182C232.722 163.182 234.017 162.295 234.426 160.977L233.131 160.614C232.79 161.523 232 161.977 230.949 161.977C229.375 161.977 228.29 160.96 228.227 159.091H234.562V158.523C234.562 155.273 232.631 154.159 230.812 154.159C228.449 154.159 226.881 156.023 226.881 158.705C226.881 161.386 228.426 163.182 230.949 163.182ZM228.227 157.932C228.318 156.574 229.278 155.364 230.812 155.364C232.267 155.364 233.199 156.455 233.199 157.932H228.227ZM236.602 163H237.943V157.477C237.943 156.295 238.875 155.432 240.148 155.432C240.506 155.432 240.875 155.5 240.966 155.523V154.159C240.812 154.148 240.46 154.136 240.261 154.136C239.216 154.136 238.307 154.727 237.989 155.591H237.898V154.273H236.602V163ZM246.989 154.273H245.034V153.386C245.034 152.523 245.398 152.068 246.284 152.068C246.67 152.068 246.898 152.159 247.034 152.205L247.42 151.045C247.216 150.955 246.807 150.818 246.148 150.818C244.898 150.818 243.693 151.568 243.693 153.068V154.273H242.284V155.409H243.693V163H245.034V155.409H246.989V154.273ZM251.186 163.205C252.709 163.205 253.504 162.386 253.777 161.818H253.845V163H255.186V157.25C255.186 154.477 253.072 154.159 251.959 154.159C250.641 154.159 249.141 154.614 248.459 156.205L249.732 156.659C250.027 156.023 250.726 155.341 252.004 155.341C253.237 155.341 253.845 155.994 253.845 157.114V157.159C253.845 157.807 253.186 157.75 251.595 157.955C249.976 158.165 248.209 158.523 248.209 160.523C248.209 162.227 249.527 163.205 251.186 163.205ZM251.391 162C250.322 162 249.55 161.523 249.55 160.591C249.55 159.568 250.482 159.25 251.527 159.114C252.095 159.045 253.618 158.886 253.845 158.614V159.841C253.845 160.932 252.982 162 251.391 162ZM261.179 163.182C263.111 163.182 264.384 162 264.611 160.455H263.27C263.02 161.409 262.224 161.977 261.179 161.977C259.588 161.977 258.565 160.659 258.565 158.636C258.565 156.659 259.611 155.364 261.179 155.364C262.361 155.364 263.065 156.091 263.27 156.886H264.611C264.384 155.25 262.997 154.159 261.156 154.159C258.793 154.159 257.224 156.023 257.224 158.682C257.224 161.295 258.724 163.182 261.179 163.182ZM270.23 163.182C272.003 163.182 273.298 162.295 273.707 160.977L272.412 160.614C272.071 161.523 271.281 161.977 270.23 161.977C268.656 161.977 267.571 160.96 267.509 159.091H273.844V158.523C273.844 155.273 271.912 154.159 270.094 154.159C267.73 154.159 266.162 156.023 266.162 158.705C266.162 161.386 267.707 163.182 270.23 163.182ZM267.509 157.932C267.599 156.574 268.56 155.364 270.094 155.364C271.548 155.364 272.48 156.455 272.48 157.932H267.509ZM67.7955 188.205C69.3182 188.205 70.1136 187.386 70.3864 186.818H70.4545V188H71.7955V182.25C71.7955 179.477 69.6818 179.159 68.5682 179.159C67.25 179.159 65.75 179.614 65.0682 181.205L66.3409 181.659C66.6364 181.023 67.3352 180.341 68.6136 180.341C69.8466 180.341 70.4545 180.994 70.4545 182.114V182.159C70.4545 182.807 69.7955 182.75 68.2045 182.955C66.5852 183.165 64.8182 183.523 64.8182 185.523C64.8182 187.227 66.1364 188.205 67.7955 188.205ZM68 187C66.9318 187 66.1591 186.523 66.1591 185.591C66.1591 184.568 67.0909 184.25 68.1364 184.114C68.7045 184.045 70.2273 183.886 70.4545 183.614V184.841C70.4545 185.932 69.5909 187 68 187ZM75.5838 182.75C75.5838 181.227 76.527 180.364 77.8111 180.364C79.0554 180.364 79.8111 181.176 79.8111 182.545V188H81.152V182.455C81.152 180.227 79.9645 179.159 78.1974 179.159C76.8793 179.159 76.0611 179.75 75.652 180.636H75.5384V179.273H74.2429V188H75.5838V182.75ZM86.8977 188.182C88.5795 188.182 89.1477 187.136 89.4432 186.659H89.6023V188H90.8977V176.364H89.5568V180.659H89.4432C89.1477 180.205 88.625 179.159 86.9205 179.159C84.7159 179.159 83.1932 180.909 83.1932 183.659C83.1932 186.432 84.7159 188.182 86.8977 188.182ZM87.0795 186.977C85.3977 186.977 84.5341 185.5 84.5341 183.636C84.5341 181.795 85.375 180.364 87.0795 180.364C88.7159 180.364 89.5795 181.682 89.5795 183.636C89.5795 185.614 88.6932 186.977 87.0795 186.977ZM103.54 184.432C103.54 186.068 102.29 186.818 101.29 186.818C100.176 186.818 99.3807 186 99.3807 184.727V179.273H98.0398V184.818C98.0398 187.045 99.2216 188.114 100.858 188.114C102.176 188.114 103.04 187.409 103.449 186.523H103.54V188H104.881V179.273H103.54V184.432ZM113.518 181.227C113.098 179.989 112.155 179.159 110.428 179.159C108.587 179.159 107.223 180.205 107.223 181.682C107.223 182.886 107.939 183.693 109.541 184.068L110.996 184.409C111.876 184.614 112.291 185.034 112.291 185.636C112.291 186.386 111.496 187 110.246 187C109.149 187 108.462 186.528 108.223 185.591L106.95 185.909C107.263 187.392 108.484 188.182 110.268 188.182C112.297 188.182 113.678 187.074 113.678 185.568C113.678 184.352 112.916 183.585 111.359 183.205L110.064 182.886C109.03 182.631 108.564 182.284 108.564 181.614C108.564 180.864 109.359 180.318 110.428 180.318C111.598 180.318 112.081 180.966 112.314 181.568L113.518 181.227ZM119.355 188.182C121.128 188.182 122.423 187.295 122.832 185.977L121.537 185.614C121.196 186.523 120.406 186.977 119.355 186.977C117.781 186.977 116.696 185.96 116.634 184.091H122.969V183.523C122.969 180.273 121.037 179.159 119.219 179.159C116.855 179.159 115.287 181.023 115.287 183.705C115.287 186.386 116.832 188.182 119.355 188.182ZM116.634 182.932C116.724 181.574 117.685 180.364 119.219 180.364C120.673 180.364 121.605 181.455 121.605 182.932H116.634ZM125.009 188H126.349V182.477C126.349 181.295 127.281 180.432 128.554 180.432C128.912 180.432 129.281 180.5 129.372 180.523V179.159C129.219 179.148 128.866 179.136 128.668 179.136C127.622 179.136 126.713 179.727 126.395 180.591H126.304V179.273H125.009V188ZM139.121 188.182C140.893 188.182 142.189 187.295 142.598 185.977L141.303 185.614C140.962 186.523 140.172 186.977 139.121 186.977C137.547 186.977 136.462 185.96 136.399 184.091H142.734V183.523C142.734 180.273 140.803 179.159 138.984 179.159C136.621 179.159 135.053 181.023 135.053 183.705C135.053 186.386 136.598 188.182 139.121 188.182ZM136.399 182.932C136.49 181.574 137.45 180.364 138.984 180.364C140.439 180.364 141.371 181.455 141.371 182.932H136.399ZM145.54 179.273H143.994L146.767 183.636L143.994 188H145.54L147.631 184.614L149.722 188H151.267L148.449 183.636L151.267 179.273H149.722L147.631 182.841L145.54 179.273ZM153.18 191.273H154.521V186.659H154.635C154.93 187.136 155.499 188.182 157.18 188.182C159.362 188.182 160.885 186.432 160.885 183.659C160.885 180.909 159.362 179.159 157.158 179.159C155.453 179.159 154.93 180.205 154.635 180.659H154.476V179.273H153.18V191.273ZM154.499 183.636C154.499 181.682 155.362 180.364 156.999 180.364C158.703 180.364 159.544 181.795 159.544 183.636C159.544 185.5 158.68 186.977 156.999 186.977C155.385 186.977 154.499 185.614 154.499 183.636ZM166.589 188.182C168.362 188.182 169.658 187.295 170.067 185.977L168.771 185.614C168.43 186.523 167.641 186.977 166.589 186.977C165.016 186.977 163.93 185.96 163.868 184.091H170.203V183.523C170.203 180.273 168.271 179.159 166.453 179.159C164.089 179.159 162.521 181.023 162.521 183.705C162.521 186.386 164.067 188.182 166.589 188.182ZM163.868 182.932C163.959 181.574 164.919 180.364 166.453 180.364C167.908 180.364 168.839 181.455 168.839 182.932H163.868ZM172.243 188H173.584V182.477C173.584 181.295 174.516 180.432 175.788 180.432C176.146 180.432 176.516 180.5 176.607 180.523V179.159C176.453 179.148 176.101 179.136 175.902 179.136C174.857 179.136 173.947 179.727 173.629 180.591H173.538V179.273H172.243V188ZM178.196 188H179.537V179.273H178.196V188ZM178.878 177.818C179.401 177.818 179.832 177.409 179.832 176.909C179.832 176.409 179.401 176 178.878 176C178.355 176 177.923 176.409 177.923 176.909C177.923 177.409 178.355 177.818 178.878 177.818ZM185.652 188.182C187.425 188.182 188.72 187.295 189.129 185.977L187.834 185.614C187.493 186.523 186.703 186.977 185.652 186.977C184.078 186.977 182.993 185.96 182.93 184.091H189.266V183.523C189.266 180.273 187.334 179.159 185.516 179.159C183.152 179.159 181.584 181.023 181.584 183.705C181.584 186.386 183.129 188.182 185.652 188.182ZM182.93 182.932C183.021 181.574 183.982 180.364 185.516 180.364C186.97 180.364 187.902 181.455 187.902 182.932H182.93ZM192.646 182.75C192.646 181.227 193.589 180.364 194.874 180.364C196.118 180.364 196.874 181.176 196.874 182.545V188H198.214V182.455C198.214 180.227 197.027 179.159 195.26 179.159C193.942 179.159 193.124 179.75 192.714 180.636H192.601V179.273H191.305V188H192.646V182.75ZM204.21 188.182C206.142 188.182 207.415 187 207.642 185.455H206.301C206.051 186.409 205.256 186.977 204.21 186.977C202.619 186.977 201.597 185.659 201.597 183.636C201.597 181.659 202.642 180.364 204.21 180.364C205.392 180.364 206.097 181.091 206.301 181.886H207.642C207.415 180.25 206.028 179.159 204.188 179.159C201.824 179.159 200.256 181.023 200.256 183.682C200.256 186.295 201.756 188.182 204.21 188.182ZM213.261 188.182C215.034 188.182 216.33 187.295 216.739 185.977L215.443 185.614C215.102 186.523 214.312 186.977 213.261 186.977C211.688 186.977 210.602 185.96 210.54 184.091H216.875V183.523C216.875 180.273 214.943 179.159 213.125 179.159C210.761 179.159 209.193 181.023 209.193 183.705C209.193 186.386 210.739 188.182 213.261 188.182ZM210.54 182.932C210.631 181.574 211.591 180.364 213.125 180.364C214.58 180.364 215.511 181.455 215.511 182.932H210.54ZM225.392 188H226.71L228.619 181.295H228.756L230.665 188H231.983L234.642 179.273H233.233L231.347 185.932H231.256L229.415 179.273H227.983L226.119 185.955H226.028L224.142 179.273H222.733L225.392 188ZM236.415 188H237.756V179.273H236.415V188ZM237.097 177.818C237.619 177.818 238.051 177.409 238.051 176.909C238.051 176.409 237.619 176 237.097 176C236.574 176 236.142 176.409 236.142 176.909C236.142 177.409 236.574 177.818 237.097 177.818ZM244.007 179.273H242.143V177.182H240.803V179.273H239.484V180.409H240.803V185.864C240.803 187.386 242.03 188.114 243.166 188.114C243.666 188.114 243.984 188.023 244.166 187.955L243.893 186.75C243.78 186.773 243.598 186.818 243.303 186.818C242.712 186.818 242.143 186.636 242.143 185.5V180.409H244.007V179.273ZM247.553 182.75C247.553 181.227 248.524 180.364 249.848 180.364C251.109 180.364 251.871 181.159 251.871 182.545V188H253.212V182.455C253.212 180.21 252.018 179.159 250.234 179.159C248.859 179.159 248.075 179.733 247.666 180.636H247.553V176.364H246.212V188H247.553V182.75ZM71.4091 207.227C70.9886 205.989 70.0455 205.159 68.3182 205.159C66.4773 205.159 65.1136 206.205 65.1136 207.682C65.1136 208.886 65.8295 209.693 67.4318 210.068L68.8864 210.409C69.767 210.614 70.1818 211.034 70.1818 211.636C70.1818 212.386 69.3864 213 68.1364 213C67.0398 213 66.3523 212.528 66.1136 211.591L64.8409 211.909C65.1534 213.392 66.375 214.182 68.1591 214.182C70.1875 214.182 71.5682 213.074 71.5682 211.568C71.5682 210.352 70.8068 209.585 69.25 209.205L67.9545 208.886C66.9205 208.631 66.4545 208.284 66.4545 207.614C66.4545 206.864 67.25 206.318 68.3182 206.318C69.4886 206.318 69.9716 206.966 70.2045 207.568L71.4091 207.227ZM77.1321 214.182C79.4957 214.182 81.0866 212.386 81.0866 209.682C81.0866 206.955 79.4957 205.159 77.1321 205.159C74.7685 205.159 73.1776 206.955 73.1776 209.682C73.1776 212.386 74.7685 214.182 77.1321 214.182ZM77.1321 212.977C75.3366 212.977 74.5185 211.432 74.5185 209.682C74.5185 207.932 75.3366 206.364 77.1321 206.364C78.9276 206.364 79.7457 207.932 79.7457 209.682C79.7457 211.432 78.9276 212.977 77.1321 212.977ZM83.1335 214H84.4744V208.545C84.4744 207.267 85.4062 206.364 86.4517 206.364C87.4688 206.364 88.179 207.028 88.179 208.023V214H89.5426V208.318C89.5426 207.193 90.2472 206.364 91.4744 206.364C92.429 206.364 93.2472 206.869 93.2472 208.159V214H94.5881V208.159C94.5881 206.108 93.4858 205.159 91.929 205.159C90.679 205.159 89.7642 205.733 89.3153 206.636H89.2244C88.7926 205.705 88.0312 205.159 86.8835 205.159C85.7472 205.159 84.9062 205.705 84.5426 206.636H84.429V205.273H83.1335V214ZM100.699 214.182C102.472 214.182 103.767 213.295 104.176 211.977L102.881 211.614C102.54 212.523 101.75 212.977 100.699 212.977C99.125 212.977 98.0398 211.96 97.9773 210.091H104.312V209.523C104.312 206.273 102.381 205.159 100.562 205.159C98.1989 205.159 96.6307 207.023 96.6307 209.705C96.6307 212.386 98.1761 214.182 100.699 214.182ZM97.9773 208.932C98.0682 207.574 99.0284 206.364 100.562 206.364C102.017 206.364 102.949 207.455 102.949 208.932H97.9773ZM110.852 217.273H112.193V212.659H112.307C112.602 213.136 113.17 214.182 114.852 214.182C117.034 214.182 118.557 212.432 118.557 209.659C118.557 206.909 117.034 205.159 114.83 205.159C113.125 205.159 112.602 206.205 112.307 206.659H112.148V205.273H110.852V217.273ZM112.17 209.636C112.17 207.682 113.034 206.364 114.67 206.364C116.375 206.364 117.216 207.795 117.216 209.636C117.216 211.5 116.352 212.977 114.67 212.977C113.057 212.977 112.17 211.614 112.17 209.636ZM120.602 214H121.943V208.477C121.943 207.295 122.875 206.432 124.148 206.432C124.506 206.432 124.875 206.5 124.966 206.523V205.159C124.812 205.148 124.46 205.136 124.261 205.136C123.216 205.136 122.307 205.727 121.989 206.591H121.898V205.273H120.602V214ZM129.835 214.182C132.199 214.182 133.79 212.386 133.79 209.682C133.79 206.955 132.199 205.159 129.835 205.159C127.472 205.159 125.881 206.955 125.881 209.682C125.881 212.386 127.472 214.182 129.835 214.182ZM129.835 212.977C128.04 212.977 127.222 211.432 127.222 209.682C127.222 207.932 128.04 206.364 129.835 206.364C131.631 206.364 132.449 207.932 132.449 209.682C132.449 211.432 131.631 212.977 129.835 212.977ZM139.382 214.182C141.314 214.182 142.587 213 142.814 211.455H141.473C141.223 212.409 140.428 212.977 139.382 212.977C137.791 212.977 136.768 211.659 136.768 209.636C136.768 207.659 137.814 206.364 139.382 206.364C140.564 206.364 141.268 207.091 141.473 207.886H142.814C142.587 206.25 141.2 205.159 139.359 205.159C136.996 205.159 135.428 207.023 135.428 209.682C135.428 212.295 136.928 214.182 139.382 214.182ZM148.32 214.182C150.251 214.182 151.524 213 151.751 211.455H150.411C150.161 212.409 149.365 212.977 148.32 212.977C146.729 212.977 145.706 211.659 145.706 209.636C145.706 207.659 146.751 206.364 148.32 206.364C149.501 206.364 150.206 207.091 150.411 207.886H151.751C151.524 206.25 150.138 205.159 148.297 205.159C145.933 205.159 144.365 207.023 144.365 209.682C144.365 212.295 145.865 214.182 148.32 214.182ZM157.371 214.182C159.143 214.182 160.439 213.295 160.848 211.977L159.553 211.614C159.212 212.523 158.422 212.977 157.371 212.977C155.797 212.977 154.712 211.96 154.649 210.091H160.984V209.523C160.984 206.273 159.053 205.159 157.234 205.159C154.871 205.159 153.303 207.023 153.303 209.705C153.303 212.386 154.848 214.182 157.371 214.182ZM154.649 208.932C154.74 207.574 155.7 206.364 157.234 206.364C158.689 206.364 159.621 207.455 159.621 208.932H154.649ZM169.206 207.227C168.786 205.989 167.842 205.159 166.115 205.159C164.274 205.159 162.911 206.205 162.911 207.682C162.911 208.886 163.626 209.693 165.229 210.068L166.683 210.409C167.564 210.614 167.979 211.034 167.979 211.636C167.979 212.386 167.183 213 165.933 213C164.837 213 164.149 212.528 163.911 211.591L162.638 211.909C162.95 213.392 164.172 214.182 165.956 214.182C167.984 214.182 169.365 213.074 169.365 211.568C169.365 210.352 168.604 209.585 167.047 209.205L165.751 208.886C164.717 208.631 164.251 208.284 164.251 207.614C164.251 206.864 165.047 206.318 166.115 206.318C167.286 206.318 167.768 206.966 168.001 207.568L169.206 207.227ZM177.565 207.227C177.145 205.989 176.202 205.159 174.474 205.159C172.634 205.159 171.27 206.205 171.27 207.682C171.27 208.886 171.986 209.693 173.588 210.068L175.043 210.409C175.923 210.614 176.338 211.034 176.338 211.636C176.338 212.386 175.543 213 174.293 213C173.196 213 172.509 212.528 172.27 211.591L170.997 211.909C171.31 213.392 172.531 214.182 174.315 214.182C176.344 214.182 177.724 213.074 177.724 211.568C177.724 210.352 176.963 209.585 175.406 209.205L174.111 208.886C173.077 208.631 172.611 208.284 172.611 207.614C172.611 206.864 173.406 206.318 174.474 206.318C175.645 206.318 176.128 206.966 176.361 207.568L177.565 207.227ZM186.811 214.205C188.334 214.205 189.129 213.386 189.402 212.818H189.47V214H190.811V208.25C190.811 205.477 188.697 205.159 187.584 205.159C186.266 205.159 184.766 205.614 184.084 207.205L185.357 207.659C185.652 207.023 186.351 206.341 187.629 206.341C188.862 206.341 189.47 206.994 189.47 208.114V208.159C189.47 208.807 188.811 208.75 187.22 208.955C185.601 209.165 183.834 209.523 183.834 211.523C183.834 213.227 185.152 214.205 186.811 214.205ZM187.016 213C185.947 213 185.175 212.523 185.175 211.591C185.175 210.568 186.107 210.25 187.152 210.114C187.72 210.045 189.243 209.886 189.47 209.614V210.841C189.47 211.932 188.607 213 187.016 213ZM194.599 208.75C194.599 207.227 195.543 206.364 196.827 206.364C198.071 206.364 198.827 207.176 198.827 208.545V214H200.168V208.455C200.168 206.227 198.98 205.159 197.213 205.159C195.895 205.159 195.077 205.75 194.668 206.636H194.554V205.273H193.259V214H194.599V208.75ZM205.913 214.182C207.595 214.182 208.163 213.136 208.459 212.659H208.618V214H209.913V202.364H208.572V206.659H208.459C208.163 206.205 207.641 205.159 205.936 205.159C203.732 205.159 202.209 206.909 202.209 209.659C202.209 212.432 203.732 214.182 205.913 214.182ZM206.095 212.977C204.413 212.977 203.55 211.5 203.55 209.636C203.55 207.795 204.391 206.364 206.095 206.364C207.732 206.364 208.595 207.682 208.595 209.636C208.595 211.614 207.709 212.977 206.095 212.977ZM217.055 214H218.396V208.545C218.396 207.267 219.328 206.364 220.374 206.364C221.391 206.364 222.101 207.028 222.101 208.023V214H223.464V208.318C223.464 207.193 224.169 206.364 225.396 206.364C226.351 206.364 227.169 206.869 227.169 208.159V214H228.51V208.159C228.51 206.108 227.408 205.159 225.851 205.159C224.601 205.159 223.686 205.733 223.237 206.636H223.146C222.714 205.705 221.953 205.159 220.805 205.159C219.669 205.159 218.828 205.705 218.464 206.636H218.351V205.273H217.055V214ZM234.621 214.182C236.393 214.182 237.689 213.295 238.098 211.977L236.803 211.614C236.462 212.523 235.672 212.977 234.621 212.977C233.047 212.977 231.962 211.96 231.899 210.091H238.234V209.523C238.234 206.273 236.303 205.159 234.484 205.159C232.121 205.159 230.553 207.023 230.553 209.705C230.553 212.386 232.098 214.182 234.621 214.182ZM231.899 208.932C231.99 207.574 232.95 206.364 234.484 206.364C235.939 206.364 236.871 207.455 236.871 208.932H231.899ZM244.07 205.273H242.206V203.182H240.865V205.273H239.547V206.409H240.865V211.864C240.865 213.386 242.092 214.114 243.229 214.114C243.729 214.114 244.047 214.023 244.229 213.955L243.956 212.75C243.842 212.773 243.661 212.818 243.365 212.818C242.774 212.818 242.206 212.636 242.206 211.5V206.409H244.07V205.273ZM247.615 208.75C247.615 207.227 248.587 206.364 249.911 206.364C251.172 206.364 251.933 207.159 251.933 208.545V214H253.274V208.455C253.274 206.21 252.081 205.159 250.297 205.159C248.922 205.159 248.138 205.733 247.729 206.636H247.615V202.364H246.274V214H247.615V208.75ZM259.273 214.182C261.636 214.182 263.227 212.386 263.227 209.682C263.227 206.955 261.636 205.159 259.273 205.159C256.909 205.159 255.318 206.955 255.318 209.682C255.318 212.386 256.909 214.182 259.273 214.182ZM259.273 212.977C257.477 212.977 256.659 211.432 256.659 209.682C256.659 207.932 257.477 206.364 259.273 206.364C261.068 206.364 261.886 207.932 261.886 209.682C261.886 211.432 261.068 212.977 259.273 212.977ZM268.57 214.182C270.251 214.182 270.82 213.136 271.115 212.659H271.274V214H272.57V202.364H271.229V206.659H271.115C270.82 206.205 270.297 205.159 268.592 205.159C266.388 205.159 264.865 206.909 264.865 209.659C264.865 212.432 266.388 214.182 268.57 214.182ZM268.751 212.977C267.07 212.977 266.206 211.5 266.206 209.636C266.206 207.795 267.047 206.364 268.751 206.364C270.388 206.364 271.251 207.682 271.251 209.636C271.251 211.614 270.365 212.977 268.751 212.977ZM276.189 214.091C276.751 214.091 277.212 213.631 277.212 213.068C277.212 212.506 276.751 212.045 276.189 212.045C275.626 212.045 275.166 212.506 275.166 213.068C275.166 213.631 275.626 214.091 276.189 214.091Z" fill="#696969"/>
<defs>
<filter id="filter0_d_10_137" x="0.577911" y="0" width="339.844" height="326.2" filterUnits="userSpaceOnUse" color-interpolation-filters="sRGB">
<feFlood flood-opacity="0" result="BackgroundImageFix"/>
<feColorMatrix in="SourceAlpha" type="matrix" values="0 0 0 0 0 0 0 0 0 0 0 0 0 0 0 0 0 0 127 0" result="hardAlpha"/>
<feOffset dy="41.7776"/>
<feGaussianBlur stdDeviation="16.711"/>
<feColorMatrix type="matrix" values="0 0 0 0 0 0 0 0 0 0 0 0 0 0 0 0 0 0 0.0503198 0"/>
<feBlend mode="normal" in2="BackgroundImageFix" result="effect1_dropShadow_10_137"/>
<feBlend mode="normal" in="SourceGraphic" in2="effect1_dropShadow_10_137" result="shape"/>
</filter>
</defs>
</svg>
