<svg width="341" height="327" viewBox="0 0 341 327" fill="none" xmlns="http://www.w3.org/2000/svg">
<g filter="url(#filter0_d_10_161)">
<rect x="34" width="273" height="251" fill="white"/>
</g>
<path d="M67.0568 112.545H63.5881L69.733 130H73.6364L79.7898 112.545H76.3125L71.7784 126.284H71.5994L67.0568 112.545ZM81.9524 130H85.0376V116.909H81.9524V130ZM83.5036 115.051C84.4837 115.051 85.2848 114.301 85.2848 113.381C85.2848 112.452 84.4837 111.702 83.5036 111.702C82.5149 111.702 81.7138 112.452 81.7138 113.381C81.7138 114.301 82.5149 115.051 83.5036 115.051ZM98.5568 120.369C98.1307 118.153 96.358 116.739 93.2898 116.739C90.1364 116.739 87.9886 118.29 87.9972 120.71C87.9886 122.619 89.1648 123.881 91.679 124.401L93.9119 124.869C95.1136 125.134 95.6761 125.619 95.6761 126.361C95.6761 127.256 94.7045 127.929 93.2386 127.929C91.8239 127.929 90.9034 127.315 90.6392 126.139L87.6307 126.429C88.0142 128.832 90.0341 130.256 93.2472 130.256C96.5199 130.256 98.8295 128.56 98.8381 126.08C98.8295 124.213 97.6278 123.071 95.1562 122.534L92.9233 122.057C91.5938 121.759 91.0653 121.298 91.0739 120.54C91.0653 119.653 92.0455 119.04 93.3324 119.04C94.7557 119.04 95.5057 119.815 95.7443 120.676L98.5568 120.369ZM109.726 124.494C109.726 126.489 108.303 127.477 106.939 127.477C105.456 127.477 104.467 126.429 104.467 124.767V116.909H101.382V125.244C101.382 128.389 103.172 130.17 105.746 130.17C107.706 130.17 109.087 129.139 109.683 127.673H109.82V130H112.811V116.909H109.726V124.494ZM119.751 130.264C121.805 130.264 123.032 129.301 123.594 128.202H123.697V130H126.663V121.239C126.663 117.778 123.842 116.739 121.344 116.739C118.592 116.739 116.478 117.966 115.796 120.352L118.677 120.761C118.984 119.866 119.853 119.099 121.362 119.099C122.793 119.099 123.577 119.832 123.577 121.119V121.17C123.577 122.057 122.648 122.099 120.339 122.347C117.799 122.619 115.37 123.378 115.37 126.327C115.37 128.901 117.254 130.264 119.751 130.264ZM120.552 127.997C119.265 127.997 118.344 127.409 118.344 126.276C118.344 125.091 119.376 124.597 120.756 124.401C121.566 124.29 123.185 124.085 123.586 123.761V125.304C123.586 126.761 122.41 127.997 120.552 127.997ZM132.85 112.545H129.765V130H132.85V112.545ZM142.112 130H149.178C153.175 130 155.135 127.963 155.135 125.244C155.135 122.602 153.26 121.051 151.402 120.957V120.787C153.107 120.386 154.453 119.193 154.453 117.071C154.453 114.472 152.578 112.545 148.794 112.545H142.112V130ZM145.274 127.358V122.244H148.76C150.712 122.244 151.922 123.438 151.922 124.997C151.922 126.386 150.967 127.358 148.675 127.358H145.274ZM145.274 119.969V115.153H148.47C150.328 115.153 151.291 116.134 151.291 117.48C151.291 119.014 150.047 119.969 148.402 119.969H145.274ZM157.749 130H160.835V122.304C160.835 120.642 162.087 119.466 163.783 119.466C164.303 119.466 164.951 119.56 165.215 119.645V116.807C164.934 116.756 164.448 116.722 164.107 116.722C162.607 116.722 161.354 117.574 160.877 119.091H160.741V116.909H157.749V130ZM170.774 130.264C172.828 130.264 174.055 129.301 174.618 128.202H174.72V130H177.686V121.239C177.686 117.778 174.865 116.739 172.368 116.739C169.615 116.739 167.501 117.966 166.82 120.352L169.7 120.761C170.007 119.866 170.876 119.099 172.385 119.099C173.817 119.099 174.601 119.832 174.601 121.119V121.17C174.601 122.057 173.672 122.099 171.362 122.347C168.822 122.619 166.393 123.378 166.393 126.327C166.393 128.901 168.277 130.264 170.774 130.264ZM171.575 127.997C170.288 127.997 169.368 127.409 169.368 126.276C169.368 125.091 170.399 124.597 171.78 124.401C172.589 124.29 174.209 124.085 174.609 123.761V125.304C174.609 126.761 173.433 127.997 171.575 127.997ZM183.874 122.33C183.874 120.438 185.016 119.347 186.643 119.347C188.237 119.347 189.192 120.395 189.192 122.142V130H192.277V121.665C192.286 118.528 190.496 116.739 187.794 116.739C185.834 116.739 184.487 117.676 183.891 119.134H183.737V116.909H180.788V130H183.874V122.33ZM200.271 130.23C202.521 130.23 203.536 128.892 204.021 127.938H204.209V130H207.243V112.545H204.149V119.074H204.021C203.553 118.128 202.589 116.739 200.28 116.739C197.254 116.739 194.876 119.108 194.876 123.472C194.876 127.784 197.186 130.23 200.271 130.23ZM201.132 127.699C199.095 127.699 198.021 125.909 198.021 123.455C198.021 121.017 199.078 119.27 201.132 119.27C203.118 119.27 204.209 120.915 204.209 123.455C204.209 125.994 203.101 127.699 201.132 127.699ZM210.531 130H213.616V116.909H210.531V130ZM212.082 115.051C213.062 115.051 213.863 114.301 213.863 113.381C213.863 112.452 213.062 111.702 212.082 111.702C211.093 111.702 210.292 112.452 210.292 113.381C210.292 114.301 211.093 115.051 212.082 115.051ZM219.874 122.33C219.874 120.438 221.016 119.347 222.643 119.347C224.237 119.347 225.192 120.395 225.192 122.142V130H228.277V121.665C228.286 118.528 226.496 116.739 223.794 116.739C221.834 116.739 220.487 117.676 219.891 119.134H219.737V116.909H216.788V130H219.874V122.33ZM237.107 135.182C240.643 135.182 243.251 133.562 243.251 130.213V116.909H240.209V119.074H240.038C239.57 118.128 238.589 116.739 236.28 116.739C233.254 116.739 230.876 119.108 230.876 123.412C230.876 127.682 233.254 129.812 236.271 129.812C238.513 129.812 239.561 128.611 240.038 127.648H240.192V130.128C240.192 132.054 238.913 132.847 237.158 132.847C235.3 132.847 234.482 131.969 234.107 131.202L231.328 131.875C231.891 133.707 233.774 135.182 237.107 135.182ZM237.132 127.392C235.095 127.392 234.021 125.807 234.021 123.395C234.021 121.017 235.078 119.27 237.132 119.27C239.118 119.27 240.209 120.915 240.209 123.395C240.209 125.892 239.101 127.392 237.132 127.392Z" fill="#0F1221"/>
<circle cx="88" cy="57" r="25" fill="#F5FBFC"/>
<path d="M75 55.1787C75 55.1787 79.9091 47 88.5 47C97.0909 47 102 55.1787 102 55.1787C102 55.1787 97.0909 63.3574 88.5 63.3574C79.9091 63.3574 75 55.1787 75 55.1787Z" stroke="#08546C" stroke-width="3" stroke-linecap="round" stroke-linejoin="round"/>
<path d="M88.5002 58.2455C90.5336 58.2455 92.182 56.8723 92.182 55.1785C92.182 53.4846 90.5336 52.1115 88.5002 52.1115C86.4668 52.1115 84.8184 53.4846 84.8184 55.1785C84.8184 56.8723 86.4668 58.2455 88.5002 58.2455Z" stroke="#08546C" stroke-width="3" stroke-linecap="round" stroke-linejoin="round"/>
<path d="M65.8182 153.364H64.4091V165H65.8182V153.364ZM69.6435 153.364H68.3707V154.409C68.3707 155.25 67.9616 155.977 67.4844 156.659L68.2116 157.25C69.1207 156.523 69.6435 155.318 69.6435 154.386V153.364ZM78.7855 156.273H77.331L74.9219 163.227H74.831L72.4219 156.273H70.9673L74.1946 165H75.5582L78.7855 156.273ZM83.902 165.182C85.6747 165.182 86.9702 164.295 87.3793 162.977L86.0838 162.614C85.7429 163.523 84.9531 163.977 83.902 163.977C82.3281 163.977 81.2429 162.96 81.1804 161.091H87.5156V160.523C87.5156 157.273 85.5838 156.159 83.7656 156.159C81.402 156.159 79.8338 158.023 79.8338 160.705C79.8338 163.386 81.3793 165.182 83.902 165.182ZM81.1804 159.932C81.2713 158.574 82.2315 157.364 83.7656 157.364C85.2202 157.364 86.152 158.455 86.152 159.932H81.1804ZM97.6009 165.182C99.5327 165.182 100.805 164 101.033 162.455H99.6918C99.4418 163.409 98.6463 163.977 97.6009 163.977C96.0099 163.977 94.9872 162.659 94.9872 160.636C94.9872 158.659 96.0327 157.364 97.6009 157.364C98.7827 157.364 99.4872 158.091 99.6918 158.886H101.033C100.805 157.25 99.419 156.159 97.5781 156.159C95.2145 156.159 93.6463 158.023 93.6463 160.682C93.6463 163.295 95.1463 165.182 97.6009 165.182ZM102.993 165H104.334V159.477C104.334 158.295 105.266 157.432 106.538 157.432C106.896 157.432 107.266 157.5 107.357 157.523V156.159C107.203 156.148 106.851 156.136 106.652 156.136C105.607 156.136 104.697 156.727 104.379 157.591H104.288V156.273H102.993V165ZM112.339 165.182C114.112 165.182 115.408 164.295 115.817 162.977L114.521 162.614C114.18 163.523 113.391 163.977 112.339 163.977C110.766 163.977 109.68 162.96 109.618 161.091H115.953V160.523C115.953 157.273 114.021 156.159 112.203 156.159C109.839 156.159 108.271 158.023 108.271 160.705C108.271 163.386 109.817 165.182 112.339 165.182ZM109.618 159.932C109.709 158.574 110.669 157.364 112.203 157.364C113.658 157.364 114.589 158.455 114.589 159.932H109.618ZM120.561 165.205C122.084 165.205 122.879 164.386 123.152 163.818H123.22V165H124.561V159.25C124.561 156.477 122.447 156.159 121.334 156.159C120.016 156.159 118.516 156.614 117.834 158.205L119.107 158.659C119.402 158.023 120.101 157.341 121.379 157.341C122.612 157.341 123.22 157.994 123.22 159.114V159.159C123.22 159.807 122.561 159.75 120.97 159.955C119.351 160.165 117.584 160.523 117.584 162.523C117.584 164.227 118.902 165.205 120.561 165.205ZM120.766 164C119.697 164 118.925 163.523 118.925 162.591C118.925 161.568 119.857 161.25 120.902 161.114C121.47 161.045 122.993 160.886 123.22 160.614V161.841C123.22 162.932 122.357 164 120.766 164ZM130.804 156.273H128.94V154.182H127.599V156.273H126.281V157.409H127.599V162.864C127.599 164.386 128.827 165.114 129.963 165.114C130.463 165.114 130.781 165.023 130.963 164.955L130.69 163.75C130.577 163.773 130.395 163.818 130.099 163.818C129.509 163.818 128.94 163.636 128.94 162.5V157.409H130.804V156.273ZM136.386 165.182C138.159 165.182 139.455 164.295 139.864 162.977L138.568 162.614C138.227 163.523 137.438 163.977 136.386 163.977C134.812 163.977 133.727 162.96 133.665 161.091H140V160.523C140 157.273 138.068 156.159 136.25 156.159C133.886 156.159 132.318 158.023 132.318 160.705C132.318 163.386 133.864 165.182 136.386 165.182ZM133.665 159.932C133.756 158.574 134.716 157.364 136.25 157.364C137.705 157.364 138.636 158.455 138.636 159.932H133.665ZM145.335 165.182C147.017 165.182 147.585 164.136 147.881 163.659H148.04V165H149.335V153.364H147.994V157.659H147.881C147.585 157.205 147.062 156.159 145.358 156.159C143.153 156.159 141.631 157.909 141.631 160.659C141.631 163.432 143.153 165.182 145.335 165.182ZM145.517 163.977C143.835 163.977 142.972 162.5 142.972 160.636C142.972 158.795 143.812 157.364 145.517 157.364C147.153 157.364 148.017 158.682 148.017 160.636C148.017 162.614 147.131 163.977 145.517 163.977ZM159.045 165.205C160.568 165.205 161.364 164.386 161.636 163.818H161.705V165H163.045V159.25C163.045 156.477 160.932 156.159 159.818 156.159C158.5 156.159 157 156.614 156.318 158.205L157.591 158.659C157.886 158.023 158.585 157.341 159.864 157.341C161.097 157.341 161.705 157.994 161.705 159.114V159.159C161.705 159.807 161.045 159.75 159.455 159.955C157.835 160.165 156.068 160.523 156.068 162.523C156.068 164.227 157.386 165.205 159.045 165.205ZM159.25 164C158.182 164 157.409 163.523 157.409 162.591C157.409 161.568 158.341 161.25 159.386 161.114C159.955 161.045 161.477 160.886 161.705 160.614V161.841C161.705 162.932 160.841 164 159.25 164ZM175.493 161.432C175.493 163.068 174.243 163.818 173.243 163.818C172.129 163.818 171.334 163 171.334 161.727V156.273H169.993V161.818C169.993 164.045 171.175 165.114 172.811 165.114C174.129 165.114 174.993 164.409 175.402 163.523H175.493V165H176.834V156.273H175.493V161.432ZM185.472 158.227C185.051 156.989 184.108 156.159 182.381 156.159C180.54 156.159 179.176 157.205 179.176 158.682C179.176 159.886 179.892 160.693 181.494 161.068L182.949 161.409C183.83 161.614 184.244 162.034 184.244 162.636C184.244 163.386 183.449 164 182.199 164C181.102 164 180.415 163.528 180.176 162.591L178.903 162.909C179.216 164.392 180.438 165.182 182.222 165.182C184.25 165.182 185.631 164.074 185.631 162.568C185.631 161.352 184.869 160.585 183.312 160.205L182.017 159.886C180.983 159.631 180.517 159.284 180.517 158.614C180.517 157.864 181.312 157.318 182.381 157.318C183.551 157.318 184.034 157.966 184.267 158.568L185.472 158.227ZM191.308 165.182C193.081 165.182 194.376 164.295 194.786 162.977L193.49 162.614C193.149 163.523 192.359 163.977 191.308 163.977C189.734 163.977 188.649 162.96 188.587 161.091H194.922V160.523C194.922 157.273 192.99 156.159 191.172 156.159C188.808 156.159 187.24 158.023 187.24 160.705C187.24 163.386 188.786 165.182 191.308 165.182ZM188.587 159.932C188.678 158.574 189.638 157.364 191.172 157.364C192.626 157.364 193.558 158.455 193.558 159.932H188.587ZM196.962 165H198.303V159.477C198.303 158.295 199.234 157.432 200.507 157.432C200.865 157.432 201.234 157.5 201.325 157.523V156.159C201.172 156.148 200.82 156.136 200.621 156.136C199.575 156.136 198.666 156.727 198.348 157.591H198.257V156.273H196.962V165ZM207.415 165H208.756V156.273H207.415V165ZM208.097 154.818C208.619 154.818 209.051 154.409 209.051 153.909C209.051 153.409 208.619 153 208.097 153C207.574 153 207.142 153.409 207.142 153.909C207.142 154.409 207.574 154.818 208.097 154.818ZM212.553 159.75C212.553 158.227 213.496 157.364 214.78 157.364C216.024 157.364 216.78 158.176 216.78 159.545V165H218.121V159.455C218.121 157.227 216.933 156.159 215.166 156.159C213.848 156.159 213.03 156.75 212.621 157.636H212.507V156.273H211.212V165H212.553V159.75ZM224.366 156.273H222.503V154.182H221.162V156.273H219.844V157.409H221.162V162.864C221.162 164.386 222.389 165.114 223.526 165.114C224.026 165.114 224.344 165.023 224.526 164.955L224.253 163.75C224.139 163.773 223.957 163.818 223.662 163.818C223.071 163.818 222.503 163.636 222.503 162.5V157.409H224.366V156.273ZM229.949 165.182C231.722 165.182 233.017 164.295 233.426 162.977L232.131 162.614C231.79 163.523 231 163.977 229.949 163.977C228.375 163.977 227.29 162.96 227.227 161.091H233.562V160.523C233.562 157.273 231.631 156.159 229.812 156.159C227.449 156.159 225.881 158.023 225.881 160.705C225.881 163.386 227.426 165.182 229.949 165.182ZM227.227 159.932C227.318 158.574 228.278 157.364 229.812 157.364C231.267 157.364 232.199 158.455 232.199 159.932H227.227ZM235.602 165H236.943V159.477C236.943 158.295 237.875 157.432 239.148 157.432C239.506 157.432 239.875 157.5 239.966 157.523V156.159C239.812 156.148 239.46 156.136 239.261 156.136C238.216 156.136 237.307 156.727 236.989 157.591H236.898V156.273H235.602V165ZM245.989 156.273H244.034V155.386C244.034 154.523 244.398 154.068 245.284 154.068C245.67 154.068 245.898 154.159 246.034 154.205L246.42 153.045C246.216 152.955 245.807 152.818 245.148 152.818C243.898 152.818 242.693 153.568 242.693 155.068V156.273H241.284V157.409H242.693V165H244.034V157.409H245.989V156.273ZM250.186 165.205C251.709 165.205 252.504 164.386 252.777 163.818H252.845V165H254.186V159.25C254.186 156.477 252.072 156.159 250.959 156.159C249.641 156.159 248.141 156.614 247.459 158.205L248.732 158.659C249.027 158.023 249.726 157.341 251.004 157.341C252.237 157.341 252.845 157.994 252.845 159.114V159.159C252.845 159.807 252.186 159.75 250.595 159.955C248.976 160.165 247.209 160.523 247.209 162.523C247.209 164.227 248.527 165.205 250.186 165.205ZM250.391 164C249.322 164 248.55 163.523 248.55 162.591C248.55 161.568 249.482 161.25 250.527 161.114C251.095 161.045 252.618 160.886 252.845 160.614V161.841C252.845 162.932 251.982 164 250.391 164ZM260.179 165.182C262.111 165.182 263.384 164 263.611 162.455H262.27C262.02 163.409 261.224 163.977 260.179 163.977C258.588 163.977 257.565 162.659 257.565 160.636C257.565 158.659 258.611 157.364 260.179 157.364C261.361 157.364 262.065 158.091 262.27 158.886H263.611C263.384 157.25 261.997 156.159 260.156 156.159C257.793 156.159 256.224 158.023 256.224 160.682C256.224 163.295 257.724 165.182 260.179 165.182ZM269.23 165.182C271.003 165.182 272.298 164.295 272.707 162.977L271.412 162.614C271.071 163.523 270.281 163.977 269.23 163.977C267.656 163.977 266.571 162.96 266.509 161.091H272.844V160.523C272.844 157.273 270.912 156.159 269.094 156.159C266.73 156.159 265.162 158.023 265.162 160.705C265.162 163.386 266.707 165.182 269.23 165.182ZM266.509 159.932C266.599 158.574 267.56 157.364 269.094 157.364C270.548 157.364 271.48 158.455 271.48 159.932H266.509ZM66.7955 190.205C68.3182 190.205 69.1136 189.386 69.3864 188.818H69.4545V190H70.7955V184.25C70.7955 181.477 68.6818 181.159 67.5682 181.159C66.25 181.159 64.75 181.614 64.0682 183.205L65.3409 183.659C65.6364 183.023 66.3352 182.341 67.6136 182.341C68.8466 182.341 69.4545 182.994 69.4545 184.114V184.159C69.4545 184.807 68.7955 184.75 67.2045 184.955C65.5852 185.165 63.8182 185.523 63.8182 187.523C63.8182 189.227 65.1364 190.205 66.7955 190.205ZM67 189C65.9318 189 65.1591 188.523 65.1591 187.591C65.1591 186.568 66.0909 186.25 67.1364 186.114C67.7045 186.045 69.2273 185.886 69.4545 185.614V186.841C69.4545 187.932 68.5909 189 67 189ZM74.5838 184.75C74.5838 183.227 75.527 182.364 76.8111 182.364C78.0554 182.364 78.8111 183.176 78.8111 184.545V190H80.152V184.455C80.152 182.227 78.9645 181.159 77.1974 181.159C75.8793 181.159 75.0611 181.75 74.652 182.636H74.5384V181.273H73.2429V190H74.5838V184.75ZM85.8977 190.182C87.5795 190.182 88.1477 189.136 88.4432 188.659H88.6023V190H89.8977V178.364H88.5568V182.659H88.4432C88.1477 182.205 87.625 181.159 85.9205 181.159C83.7159 181.159 82.1932 182.909 82.1932 185.659C82.1932 188.432 83.7159 190.182 85.8977 190.182ZM86.0795 188.977C84.3977 188.977 83.5341 187.5 83.5341 185.636C83.5341 183.795 84.375 182.364 86.0795 182.364C87.7159 182.364 88.5795 183.682 88.5795 185.636C88.5795 187.614 87.6932 188.977 86.0795 188.977ZM102.54 186.432C102.54 188.068 101.29 188.818 100.29 188.818C99.1761 188.818 98.3807 188 98.3807 186.727V181.273H97.0398V186.818C97.0398 189.045 98.2216 190.114 99.858 190.114C101.176 190.114 102.04 189.409 102.449 188.523H102.54V190H103.881V181.273H102.54V186.432ZM112.518 183.227C112.098 181.989 111.155 181.159 109.428 181.159C107.587 181.159 106.223 182.205 106.223 183.682C106.223 184.886 106.939 185.693 108.541 186.068L109.996 186.409C110.876 186.614 111.291 187.034 111.291 187.636C111.291 188.386 110.496 189 109.246 189C108.149 189 107.462 188.528 107.223 187.591L105.95 187.909C106.263 189.392 107.484 190.182 109.268 190.182C111.297 190.182 112.678 189.074 112.678 187.568C112.678 186.352 111.916 185.585 110.359 185.205L109.064 184.886C108.03 184.631 107.564 184.284 107.564 183.614C107.564 182.864 108.359 182.318 109.428 182.318C110.598 182.318 111.081 182.966 111.314 183.568L112.518 183.227ZM118.355 190.182C120.128 190.182 121.423 189.295 121.832 187.977L120.537 187.614C120.196 188.523 119.406 188.977 118.355 188.977C116.781 188.977 115.696 187.96 115.634 186.091H121.969V185.523C121.969 182.273 120.037 181.159 118.219 181.159C115.855 181.159 114.287 183.023 114.287 185.705C114.287 188.386 115.832 190.182 118.355 190.182ZM115.634 184.932C115.724 183.574 116.685 182.364 118.219 182.364C119.673 182.364 120.605 183.455 120.605 184.932H115.634ZM124.009 190H125.349V184.477C125.349 183.295 126.281 182.432 127.554 182.432C127.912 182.432 128.281 182.5 128.372 182.523V181.159C128.219 181.148 127.866 181.136 127.668 181.136C126.622 181.136 125.713 181.727 125.395 182.591H125.304V181.273H124.009V190ZM138.121 190.182C139.893 190.182 141.189 189.295 141.598 187.977L140.303 187.614C139.962 188.523 139.172 188.977 138.121 188.977C136.547 188.977 135.462 187.96 135.399 186.091H141.734V185.523C141.734 182.273 139.803 181.159 137.984 181.159C135.621 181.159 134.053 183.023 134.053 185.705C134.053 188.386 135.598 190.182 138.121 190.182ZM135.399 184.932C135.49 183.574 136.45 182.364 137.984 182.364C139.439 182.364 140.371 183.455 140.371 184.932H135.399ZM144.54 181.273H142.994L145.767 185.636L142.994 190H144.54L146.631 186.614L148.722 190H150.267L147.449 185.636L150.267 181.273H148.722L146.631 184.841L144.54 181.273ZM152.18 193.273H153.521V188.659H153.635C153.93 189.136 154.499 190.182 156.18 190.182C158.362 190.182 159.885 188.432 159.885 185.659C159.885 182.909 158.362 181.159 156.158 181.159C154.453 181.159 153.93 182.205 153.635 182.659H153.476V181.273H152.18V193.273ZM153.499 185.636C153.499 183.682 154.362 182.364 155.999 182.364C157.703 182.364 158.544 183.795 158.544 185.636C158.544 187.5 157.68 188.977 155.999 188.977C154.385 188.977 153.499 187.614 153.499 185.636ZM165.589 190.182C167.362 190.182 168.658 189.295 169.067 187.977L167.771 187.614C167.43 188.523 166.641 188.977 165.589 188.977C164.016 188.977 162.93 187.96 162.868 186.091H169.203V185.523C169.203 182.273 167.271 181.159 165.453 181.159C163.089 181.159 161.521 183.023 161.521 185.705C161.521 188.386 163.067 190.182 165.589 190.182ZM162.868 184.932C162.959 183.574 163.919 182.364 165.453 182.364C166.908 182.364 167.839 183.455 167.839 184.932H162.868ZM171.243 190H172.584V184.477C172.584 183.295 173.516 182.432 174.788 182.432C175.146 182.432 175.516 182.5 175.607 182.523V181.159C175.453 181.148 175.101 181.136 174.902 181.136C173.857 181.136 172.947 181.727 172.629 182.591H172.538V181.273H171.243V190ZM177.196 190H178.537V181.273H177.196V190ZM177.878 179.818C178.401 179.818 178.832 179.409 178.832 178.909C178.832 178.409 178.401 178 177.878 178C177.355 178 176.923 178.409 176.923 178.909C176.923 179.409 177.355 179.818 177.878 179.818ZM184.652 190.182C186.425 190.182 187.72 189.295 188.129 187.977L186.834 187.614C186.493 188.523 185.703 188.977 184.652 188.977C183.078 188.977 181.993 187.96 181.93 186.091H188.266V185.523C188.266 182.273 186.334 181.159 184.516 181.159C182.152 181.159 180.584 183.023 180.584 185.705C180.584 188.386 182.129 190.182 184.652 190.182ZM181.93 184.932C182.021 183.574 182.982 182.364 184.516 182.364C185.97 182.364 186.902 183.455 186.902 184.932H181.93ZM191.646 184.75C191.646 183.227 192.589 182.364 193.874 182.364C195.118 182.364 195.874 183.176 195.874 184.545V190H197.214V184.455C197.214 182.227 196.027 181.159 194.26 181.159C192.942 181.159 192.124 181.75 191.714 182.636H191.601V181.273H190.305V190H191.646V184.75ZM203.21 190.182C205.142 190.182 206.415 189 206.642 187.455H205.301C205.051 188.409 204.256 188.977 203.21 188.977C201.619 188.977 200.597 187.659 200.597 185.636C200.597 183.659 201.642 182.364 203.21 182.364C204.392 182.364 205.097 183.091 205.301 183.886H206.642C206.415 182.25 205.028 181.159 203.188 181.159C200.824 181.159 199.256 183.023 199.256 185.682C199.256 188.295 200.756 190.182 203.21 190.182ZM212.261 190.182C214.034 190.182 215.33 189.295 215.739 187.977L214.443 187.614C214.102 188.523 213.312 188.977 212.261 188.977C210.688 188.977 209.602 187.96 209.54 186.091H215.875V185.523C215.875 182.273 213.943 181.159 212.125 181.159C209.761 181.159 208.193 183.023 208.193 185.705C208.193 188.386 209.739 190.182 212.261 190.182ZM209.54 184.932C209.631 183.574 210.591 182.364 212.125 182.364C213.58 182.364 214.511 183.455 214.511 184.932H209.54ZM224.392 190H225.71L227.619 183.295H227.756L229.665 190H230.983L233.642 181.273H232.233L230.347 187.932H230.256L228.415 181.273H226.983L225.119 187.955H225.028L223.142 181.273H221.733L224.392 190ZM235.415 190H236.756V181.273H235.415V190ZM236.097 179.818C236.619 179.818 237.051 179.409 237.051 178.909C237.051 178.409 236.619 178 236.097 178C235.574 178 235.142 178.409 235.142 178.909C235.142 179.409 235.574 179.818 236.097 179.818ZM243.007 181.273H241.143V179.182H239.803V181.273H238.484V182.409H239.803V187.864C239.803 189.386 241.03 190.114 242.166 190.114C242.666 190.114 242.984 190.023 243.166 189.955L242.893 188.75C242.78 188.773 242.598 188.818 242.303 188.818C241.712 188.818 241.143 188.636 241.143 187.5V182.409H243.007V181.273ZM246.553 184.75C246.553 183.227 247.524 182.364 248.848 182.364C250.109 182.364 250.871 183.159 250.871 184.545V190H252.212V184.455C252.212 182.21 251.018 181.159 249.234 181.159C247.859 181.159 247.075 181.733 246.666 182.636H246.553V178.364H245.212V190H246.553V184.75ZM70.4091 209.227C69.9886 207.989 69.0455 207.159 67.3182 207.159C65.4773 207.159 64.1136 208.205 64.1136 209.682C64.1136 210.886 64.8295 211.693 66.4318 212.068L67.8864 212.409C68.767 212.614 69.1818 213.034 69.1818 213.636C69.1818 214.386 68.3864 215 67.1364 215C66.0398 215 65.3523 214.528 65.1136 213.591L63.8409 213.909C64.1534 215.392 65.375 216.182 67.1591 216.182C69.1875 216.182 70.5682 215.074 70.5682 213.568C70.5682 212.352 69.8068 211.585 68.25 211.205L66.9545 210.886C65.9205 210.631 65.4545 210.284 65.4545 209.614C65.4545 208.864 66.25 208.318 67.3182 208.318C68.4886 208.318 68.9716 208.966 69.2045 209.568L70.4091 209.227ZM76.1321 216.182C78.4957 216.182 80.0866 214.386 80.0866 211.682C80.0866 208.955 78.4957 207.159 76.1321 207.159C73.7685 207.159 72.1776 208.955 72.1776 211.682C72.1776 214.386 73.7685 216.182 76.1321 216.182ZM76.1321 214.977C74.3366 214.977 73.5185 213.432 73.5185 211.682C73.5185 209.932 74.3366 208.364 76.1321 208.364C77.9276 208.364 78.7457 209.932 78.7457 211.682C78.7457 213.432 77.9276 214.977 76.1321 214.977ZM82.1335 216H83.4744V210.545C83.4744 209.267 84.4062 208.364 85.4517 208.364C86.4688 208.364 87.179 209.028 87.179 210.023V216H88.5426V210.318C88.5426 209.193 89.2472 208.364 90.4744 208.364C91.429 208.364 92.2472 208.869 92.2472 210.159V216H93.5881V210.159C93.5881 208.108 92.4858 207.159 90.929 207.159C89.679 207.159 88.7642 207.733 88.3153 208.636H88.2244C87.7926 207.705 87.0312 207.159 85.8835 207.159C84.7472 207.159 83.9062 207.705 83.5426 208.636H83.429V207.273H82.1335V216ZM99.6989 216.182C101.472 216.182 102.767 215.295 103.176 213.977L101.881 213.614C101.54 214.523 100.75 214.977 99.6989 214.977C98.125 214.977 97.0398 213.96 96.9773 212.091H103.312V211.523C103.312 208.273 101.381 207.159 99.5625 207.159C97.1989 207.159 95.6307 209.023 95.6307 211.705C95.6307 214.386 97.1761 216.182 99.6989 216.182ZM96.9773 210.932C97.0682 209.574 98.0284 208.364 99.5625 208.364C101.017 208.364 101.949 209.455 101.949 210.932H96.9773ZM109.852 219.273H111.193V214.659H111.307C111.602 215.136 112.17 216.182 113.852 216.182C116.034 216.182 117.557 214.432 117.557 211.659C117.557 208.909 116.034 207.159 113.83 207.159C112.125 207.159 111.602 208.205 111.307 208.659H111.148V207.273H109.852V219.273ZM111.17 211.636C111.17 209.682 112.034 208.364 113.67 208.364C115.375 208.364 116.216 209.795 116.216 211.636C116.216 213.5 115.352 214.977 113.67 214.977C112.057 214.977 111.17 213.614 111.17 211.636ZM119.602 216H120.943V210.477C120.943 209.295 121.875 208.432 123.148 208.432C123.506 208.432 123.875 208.5 123.966 208.523V207.159C123.812 207.148 123.46 207.136 123.261 207.136C122.216 207.136 121.307 207.727 120.989 208.591H120.898V207.273H119.602V216ZM128.835 216.182C131.199 216.182 132.79 214.386 132.79 211.682C132.79 208.955 131.199 207.159 128.835 207.159C126.472 207.159 124.881 208.955 124.881 211.682C124.881 214.386 126.472 216.182 128.835 216.182ZM128.835 214.977C127.04 214.977 126.222 213.432 126.222 211.682C126.222 209.932 127.04 208.364 128.835 208.364C130.631 208.364 131.449 209.932 131.449 211.682C131.449 213.432 130.631 214.977 128.835 214.977ZM138.382 216.182C140.314 216.182 141.587 215 141.814 213.455H140.473C140.223 214.409 139.428 214.977 138.382 214.977C136.791 214.977 135.768 213.659 135.768 211.636C135.768 209.659 136.814 208.364 138.382 208.364C139.564 208.364 140.268 209.091 140.473 209.886H141.814C141.587 208.25 140.2 207.159 138.359 207.159C135.996 207.159 134.428 209.023 134.428 211.682C134.428 214.295 135.928 216.182 138.382 216.182ZM147.32 216.182C149.251 216.182 150.524 215 150.751 213.455H149.411C149.161 214.409 148.365 214.977 147.32 214.977C145.729 214.977 144.706 213.659 144.706 211.636C144.706 209.659 145.751 208.364 147.32 208.364C148.501 208.364 149.206 209.091 149.411 209.886H150.751C150.524 208.25 149.138 207.159 147.297 207.159C144.933 207.159 143.365 209.023 143.365 211.682C143.365 214.295 144.865 216.182 147.32 216.182ZM156.371 216.182C158.143 216.182 159.439 215.295 159.848 213.977L158.553 213.614C158.212 214.523 157.422 214.977 156.371 214.977C154.797 214.977 153.712 213.96 153.649 212.091H159.984V211.523C159.984 208.273 158.053 207.159 156.234 207.159C153.871 207.159 152.303 209.023 152.303 211.705C152.303 214.386 153.848 216.182 156.371 216.182ZM153.649 210.932C153.74 209.574 154.7 208.364 156.234 208.364C157.689 208.364 158.621 209.455 158.621 210.932H153.649ZM168.206 209.227C167.786 207.989 166.842 207.159 165.115 207.159C163.274 207.159 161.911 208.205 161.911 209.682C161.911 210.886 162.626 211.693 164.229 212.068L165.683 212.409C166.564 212.614 166.979 213.034 166.979 213.636C166.979 214.386 166.183 215 164.933 215C163.837 215 163.149 214.528 162.911 213.591L161.638 213.909C161.95 215.392 163.172 216.182 164.956 216.182C166.984 216.182 168.365 215.074 168.365 213.568C168.365 212.352 167.604 211.585 166.047 211.205L164.751 210.886C163.717 210.631 163.251 210.284 163.251 209.614C163.251 208.864 164.047 208.318 165.115 208.318C166.286 208.318 166.768 208.966 167.001 209.568L168.206 209.227ZM176.565 209.227C176.145 207.989 175.202 207.159 173.474 207.159C171.634 207.159 170.27 208.205 170.27 209.682C170.27 210.886 170.986 211.693 172.588 212.068L174.043 212.409C174.923 212.614 175.338 213.034 175.338 213.636C175.338 214.386 174.543 215 173.293 215C172.196 215 171.509 214.528 171.27 213.591L169.997 213.909C170.31 215.392 171.531 216.182 173.315 216.182C175.344 216.182 176.724 215.074 176.724 213.568C176.724 212.352 175.963 211.585 174.406 211.205L173.111 210.886C172.077 210.631 171.611 210.284 171.611 209.614C171.611 208.864 172.406 208.318 173.474 208.318C174.645 208.318 175.128 208.966 175.361 209.568L176.565 209.227ZM185.811 216.205C187.334 216.205 188.129 215.386 188.402 214.818H188.47V216H189.811V210.25C189.811 207.477 187.697 207.159 186.584 207.159C185.266 207.159 183.766 207.614 183.084 209.205L184.357 209.659C184.652 209.023 185.351 208.341 186.629 208.341C187.862 208.341 188.47 208.994 188.47 210.114V210.159C188.47 210.807 187.811 210.75 186.22 210.955C184.601 211.165 182.834 211.523 182.834 213.523C182.834 215.227 184.152 216.205 185.811 216.205ZM186.016 215C184.947 215 184.175 214.523 184.175 213.591C184.175 212.568 185.107 212.25 186.152 212.114C186.72 212.045 188.243 211.886 188.47 211.614V212.841C188.47 213.932 187.607 215 186.016 215ZM193.599 210.75C193.599 209.227 194.543 208.364 195.827 208.364C197.071 208.364 197.827 209.176 197.827 210.545V216H199.168V210.455C199.168 208.227 197.98 207.159 196.213 207.159C194.895 207.159 194.077 207.75 193.668 208.636H193.554V207.273H192.259V216H193.599V210.75ZM204.913 216.182C206.595 216.182 207.163 215.136 207.459 214.659H207.618V216H208.913V204.364H207.572V208.659H207.459C207.163 208.205 206.641 207.159 204.936 207.159C202.732 207.159 201.209 208.909 201.209 211.659C201.209 214.432 202.732 216.182 204.913 216.182ZM205.095 214.977C203.413 214.977 202.55 213.5 202.55 211.636C202.55 209.795 203.391 208.364 205.095 208.364C206.732 208.364 207.595 209.682 207.595 211.636C207.595 213.614 206.709 214.977 205.095 214.977ZM216.055 216H217.396V210.545C217.396 209.267 218.328 208.364 219.374 208.364C220.391 208.364 221.101 209.028 221.101 210.023V216H222.464V210.318C222.464 209.193 223.169 208.364 224.396 208.364C225.351 208.364 226.169 208.869 226.169 210.159V216H227.51V210.159C227.51 208.108 226.408 207.159 224.851 207.159C223.601 207.159 222.686 207.733 222.237 208.636H222.146C221.714 207.705 220.953 207.159 219.805 207.159C218.669 207.159 217.828 207.705 217.464 208.636H217.351V207.273H216.055V216ZM233.621 216.182C235.393 216.182 236.689 215.295 237.098 213.977L235.803 213.614C235.462 214.523 234.672 214.977 233.621 214.977C232.047 214.977 230.962 213.96 230.899 212.091H237.234V211.523C237.234 208.273 235.303 207.159 233.484 207.159C231.121 207.159 229.553 209.023 229.553 211.705C229.553 214.386 231.098 216.182 233.621 216.182ZM230.899 210.932C230.99 209.574 231.95 208.364 233.484 208.364C234.939 208.364 235.871 209.455 235.871 210.932H230.899ZM243.07 207.273H241.206V205.182H239.865V207.273H238.547V208.409H239.865V213.864C239.865 215.386 241.092 216.114 242.229 216.114C242.729 216.114 243.047 216.023 243.229 215.955L242.956 214.75C242.842 214.773 242.661 214.818 242.365 214.818C241.774 214.818 241.206 214.636 241.206 213.5V208.409H243.07V207.273ZM246.615 210.75C246.615 209.227 247.587 208.364 248.911 208.364C250.172 208.364 250.933 209.159 250.933 210.545V216H252.274V210.455C252.274 208.21 251.081 207.159 249.297 207.159C247.922 207.159 247.138 207.733 246.729 208.636H246.615V204.364H245.274V216H246.615V210.75ZM258.273 216.182C260.636 216.182 262.227 214.386 262.227 211.682C262.227 208.955 260.636 207.159 258.273 207.159C255.909 207.159 254.318 208.955 254.318 211.682C254.318 214.386 255.909 216.182 258.273 216.182ZM258.273 214.977C256.477 214.977 255.659 213.432 255.659 211.682C255.659 209.932 256.477 208.364 258.273 208.364C260.068 208.364 260.886 209.932 260.886 211.682C260.886 213.432 260.068 214.977 258.273 214.977ZM267.57 216.182C269.251 216.182 269.82 215.136 270.115 214.659H270.274V216H271.57V204.364H270.229V208.659H270.115C269.82 208.205 269.297 207.159 267.592 207.159C265.388 207.159 263.865 208.909 263.865 211.659C263.865 214.432 265.388 216.182 267.57 216.182ZM267.751 214.977C266.07 214.977 265.206 213.5 265.206 211.636C265.206 209.795 266.047 208.364 267.751 208.364C269.388 208.364 270.251 209.682 270.251 211.636C270.251 213.614 269.365 214.977 267.751 214.977ZM275.189 216.091C275.751 216.091 276.212 215.631 276.212 215.068C276.212 214.506 275.751 214.045 275.189 214.045C274.626 214.045 274.166 214.506 274.166 215.068C274.166 215.631 274.626 216.091 275.189 216.091Z" fill="#696969"/>
<defs>
<filter id="filter0_d_10_161" x="0.577911" y="0" width="339.844" height="326.2" filterUnits="userSpaceOnUse" color-interpolation-filters="sRGB">
<feFlood flood-opacity="0" result="BackgroundImageFix"/>
<feColorMatrix in="SourceAlpha" type="matrix" values="0 0 0 0 0 0 0 0 0 0 0 0 0 0 0 0 0 0 127 0" result="hardAlpha"/>
<feOffset dy="41.7776"/>
<feGaussianBlur stdDeviation="16.711"/>
<feColorMatrix type="matrix" values="0 0 0 0 0 0 0 0 0 0 0 0 0 0 0 0 0 0 0.0503198 0"/>
<feBlend mode="normal" in2="BackgroundImageFix" result="effect1_dropShadow_10_161"/>
<feBlend mode="normal" in="SourceGraphic" in2="effect1_dropShadow_10_161" result="shape"/>
</filter>
</defs>
</svg>
